<svg width="20" height="20" viewBox="0 0 20 20" fill="none" xmlns="http://www.w3.org/2000/svg">
<path d="M14.3056 5.13888H5.69446C5.3889 5.13888 5.13892 5.38886 5.13892 5.69441V14.3055C5.13892 14.6111 5.3889 14.8611 5.69446 14.8611H14.3056C14.6111 14.8611 14.8611 14.6111 14.8611 14.3055V5.69445C14.8611 5.3889 14.6111 5.13888 14.3056 5.13888ZM13.75 13.75H6.25V11.6667H7.36112C7.66667 11.6667 7.91666 11.4167 7.91666 11.1111C7.91666 10.8056 7.66667 10.5556 7.36112 10.5556H6.25V9.44446H8.47224C8.77779 9.44446 9.02778 9.19447 9.02778 8.88892C9.02778 8.58337 8.77779 8.33338 8.47224 8.33338H6.25V6.25003H13.75V13.75Z" fill="#285C91"/>
<path d="M20 8.55556C20 8.25001 19.75 8.00002 19.4445 8.00002H17.6667V6.25003H19.4445C19.75 6.25003 20 6.00005 20 5.69449C20 5.38894 19.75 5.13895 19.4445 5.13895H17.6667V3.94447C17.6667 3.05557 16.9444 2.33337 16.0556 2.33337H14.8611V0.55554C14.8611 0.249987 14.6111 0 14.3056 0C14 0 13.75 0.249987 13.75 0.55554V2.33333H11.9722V0.55554C11.9722 0.249987 11.7222 0 11.4167 0C11.1111 0 10.8611 0.249987 10.8611 0.55554V2.33333H9.08334V0.55554C9.08334 0.249987 8.83335 0 8.5278 0C8.22225 0 7.97226 0.249987 7.97226 0.55554V2.33333H6.25003V0.55554C6.25 0.249987 6.00001 0 5.69446 0C5.3889 0 5.13891 0.249987 5.13891 0.55554V2.33333H3.94447C3.05557 2.33333 2.33337 3.05557 2.33337 3.94443V5.13888H0.55554C0.249987 5.13888 0 5.3889 0 5.69446C0 6.00001 0.249987 6.25 0.55554 6.25H2.33333V8.02779H0.55554C0.249987 8.02779 0 8.27777 0 8.58333C0 8.88888 0.249987 9.13887 0.55554 9.13887H2.33333V10.9167H0.55554C0.249987 10.9167 0 11.1667 0 11.4722C0 11.7778 0.249987 12.0278 0.55554 12.0278H2.33333V13.75H0.55554C0.249987 13.75 0 14 0 14.3056C0 14.6111 0.249987 14.8611 0.55554 14.8611H2.33333V16.0556C2.33333 16.9445 3.05557 17.6667 3.94443 17.6667H5.13888V19.4445C5.13888 19.75 5.38886 20 5.69442 20C5.99997 20 6.24996 19.75 6.24996 19.4445V17.6667H8.02775V19.4445C8.02775 19.75 8.27773 20 8.58329 20C8.88884 20 9.13883 19.75 9.13883 19.4445V17.6667H10.9166V19.4445C10.9166 19.75 11.1666 20 11.4722 20C11.7777 20 12.0277 19.75 12.0277 19.4445V17.6667H13.7499V19.4445C13.7499 19.75 13.9999 20 14.3055 20C14.611 20 14.861 19.75 14.861 19.4445V17.6667H16.0555C16.9444 17.6667 17.6665 16.9444 17.6665 16.0556V14.8611H19.4443C19.7499 14.8611 19.9999 14.6111 19.9999 14.3056C19.9999 14 19.7499 13.75 19.4443 13.75H17.6665V11.9722H19.4443C19.7499 11.9722 19.9999 11.7222 19.9999 11.4167C19.9999 11.1111 19.7499 10.8611 19.4443 10.8611H17.6665V9.08334H19.4443V9.1111C19.75 9.1111 20 8.86112 20 8.55556ZM16.5834 16.0556H16.5556C16.5556 16.3334 16.3334 16.5556 16.0556 16.5556H3.94447C3.66668 16.5556 3.44445 16.3334 3.44445 16.0556V3.94447C3.44445 3.66668 3.66668 3.44445 3.94447 3.44445H16.0834C16.3612 3.44445 16.5834 3.66668 16.5834 3.94447V16.0556H16.5834Z" fill="#285C91"/>
</svg>
