<svg width="20" height="20" viewBox="0 0 20 20" fill="none" xmlns="http://www.w3.org/2000/svg">
<path d="M15.657 4.34296C14.1573 2.84332 12.1671 2.01275 10.0481 2.00037C10.0398 2.00009 10.0317 1.99994 10.0234 2.00006C5.61142 1.98278 2 5.55485 2 9.99987C2 14.4212 5.57801 18 10.0001 18C12.1316 18 14.1432 17.1705 15.657 15.6568C18.7834 12.5303 18.7838 7.46981 15.657 4.34296ZM10.4688 16.645V13.7793C11.1976 13.827 11.9061 13.9858 12.5742 14.2471C12.0319 15.1568 11.3196 15.9747 10.4688 16.645ZM10.4688 12.8401V10.4686H13.7535C13.6929 11.4862 13.4364 12.4841 13.0124 13.4118C12.2087 13.0852 11.3514 12.8911 10.4688 12.8401ZM10.4688 9.53111V7.15959C11.3514 7.10865 12.2087 6.91455 13.0124 6.58796C13.4364 7.51565 13.6929 8.51354 13.7535 9.53111H10.4688ZM10.4688 6.22045V3.3548C11.3196 4.02512 12.0319 4.843 12.5742 5.75263C11.9061 6.01401 11.1976 6.17276 10.4688 6.22045ZM11.648 3.13189C12.7267 3.3907 13.7098 3.89765 14.5335 4.5889C14.1864 4.88025 13.8152 5.13532 13.4249 5.35229C12.9488 4.53615 12.3505 3.7853 11.648 3.13189ZM9.53134 3.40473V6.22045C8.82111 6.17398 8.13001 6.02217 7.477 5.77257C8.00744 4.87744 8.70214 4.07055 9.53134 3.40473ZM6.62274 5.37829C6.21508 5.15575 5.82786 4.89203 5.46666 4.5889C6.31174 3.87977 7.3245 3.36439 8.4362 3.11211C7.71694 3.77705 7.10603 4.54378 6.62274 5.37829ZM9.53134 7.15962V9.53115H6.30942C6.36964 8.52126 6.62265 7.53081 7.04096 6.60908C7.82929 6.92284 8.66817 7.10978 9.53134 7.15962ZM9.53134 10.4686V12.8401C8.66817 12.89 7.82928 13.0769 7.04099 13.3907C6.62268 12.469 6.36967 11.4785 6.30945 10.4686H9.53134ZM9.53134 13.7793V16.595C8.70214 15.9292 8.00744 15.1223 7.477 14.2272C8.13001 13.9776 8.82111 13.8258 9.53134 13.7793ZM8.4362 16.8877C7.3245 16.6354 6.31174 16.12 5.46666 15.4109C5.82786 15.1077 6.21508 14.844 6.62274 14.6215C7.10603 15.456 7.71694 16.2227 8.4362 16.8877ZM13.4249 14.6475C13.8152 14.8644 14.1864 15.1195 14.5335 15.4109C13.7098 16.1021 12.7267 16.6091 11.648 16.8679C12.3505 16.2145 12.9488 15.4636 13.4249 14.6475ZM13.8577 13.815C14.3412 12.762 14.6306 11.6265 14.6925 10.4686H17.0467C16.9382 12.116 16.2628 13.6108 15.2136 14.7591C14.7916 14.3957 14.3375 14.0797 13.8577 13.815ZM17.0467 9.53111H14.6925C14.6306 8.37319 14.3412 7.23771 13.8577 6.18476C14.3375 5.92004 14.7916 5.60407 15.2136 5.2406C16.2628 6.38895 16.9383 7.88381 17.0467 9.53111ZM4.78653 5.2406C5.22332 5.61676 5.69467 5.94161 6.19295 6.21186C5.71692 7.25721 5.43182 8.3831 5.37048 9.53111H2.95345C3.06192 7.88381 3.73739 6.38895 4.78653 5.2406ZM2.95345 10.4686H5.37048C5.43182 11.6166 5.71692 12.7425 6.19295 13.7879C5.69467 14.0581 5.22332 14.383 4.78653 14.7591C3.73739 13.6108 3.06192 12.116 2.95345 10.4686Z" fill="#285C91"/>
</svg>
