<svg width="20" height="20" viewBox="0 0 20 20" fill="none" xmlns="http://www.w3.org/2000/svg">
<path d="M16.25 0.625H3.75C3.50136 0.625 3.2629 0.723772 3.08709 0.899587C2.91127 1.0754 2.8125 1.31386 2.8125 1.5625V18.4375C2.8125 18.6861 2.91127 18.9246 3.08709 19.1004C3.2629 19.2762 3.50136 19.375 3.75 19.375H16.25C16.4986 19.375 16.7371 19.2762 16.9129 19.1004C17.0887 18.9246 17.1875 18.6861 17.1875 18.4375V1.5625C17.1875 1.31386 17.0887 1.0754 16.9129 0.899587C16.7371 0.723772 16.4986 0.625 16.25 0.625ZM16.5625 18.4375C16.5625 18.5204 16.5296 18.5999 16.471 18.6585C16.4124 18.7171 16.3329 18.75 16.25 18.75H3.75C3.66712 18.75 3.58763 18.7171 3.52903 18.6585C3.47042 18.5999 3.4375 18.5204 3.4375 18.4375V1.5625C3.4375 1.47962 3.47042 1.40013 3.52903 1.34153C3.58763 1.28292 3.66712 1.25 3.75 1.25H16.25C16.3329 1.25 16.4124 1.28292 16.471 1.34153C16.5296 1.40013 16.5625 1.47962 16.5625 1.5625V18.4375Z" fill="#285C91"/>
<path d="M4.6875 3.4375C4.87292 3.4375 5.05417 3.38252 5.20834 3.2795C5.36251 3.17649 5.48268 3.03007 5.55363 2.85877C5.62459 2.68746 5.64316 2.49896 5.60698 2.3171C5.57081 2.13525 5.48152 1.9682 5.35041 1.83709C5.2193 1.70598 5.05225 1.61669 4.87039 1.58051C4.68854 1.54434 4.50004 1.56291 4.32873 1.63386C4.15743 1.70482 4.01101 1.82498 3.908 1.97915C3.80498 2.13332 3.75 2.31458 3.75 2.5C3.75 2.74864 3.84877 2.9871 4.02459 3.16291C4.2004 3.33873 4.43886 3.4375 4.6875 3.4375ZM4.6875 2.1875C4.7493 2.1875 4.80972 2.20583 4.86111 2.24017C4.9125 2.2745 4.95256 2.32331 4.97621 2.38041C4.99986 2.43751 5.00605 2.50035 4.99399 2.56097C4.98194 2.62159 4.95217 2.67727 4.90847 2.72097C4.86476 2.76468 4.80908 2.79444 4.74846 2.8065C4.68784 2.81855 4.62501 2.81237 4.56791 2.78871C4.51081 2.76506 4.462 2.72501 4.42766 2.67362C4.39333 2.62223 4.375 2.56181 4.375 2.5C4.375 2.41712 4.40792 2.33763 4.46653 2.27903C4.52513 2.22042 4.60462 2.1875 4.6875 2.1875Z" fill="#285C91"/>
<path d="M15.3125 1.5625C15.1271 1.5625 14.9458 1.61748 14.7917 1.7205C14.6375 1.82351 14.5173 1.96993 14.4464 2.14123C14.3754 2.31254 14.3568 2.50104 14.393 2.6829C14.4292 2.86475 14.5185 3.0318 14.6496 3.16291C14.7807 3.29402 14.9477 3.38331 15.1296 3.41949C15.3115 3.45566 15.5 3.43709 15.6713 3.36614C15.8426 3.29518 15.989 3.17502 16.092 3.02085C16.195 2.86668 16.25 2.68542 16.25 2.5C16.25 2.25136 16.1512 2.0129 15.9754 1.83709C15.7996 1.66127 15.5611 1.5625 15.3125 1.5625ZM15.3125 2.8125C15.2507 2.8125 15.1903 2.79417 15.1389 2.75983C15.0875 2.7255 15.0474 2.67669 15.0238 2.61959C15.0001 2.56249 14.9939 2.49965 15.006 2.43903C15.0181 2.37842 15.0478 2.32273 15.0915 2.27903C15.1352 2.23533 15.1909 2.20556 15.2515 2.1935C15.3122 2.18145 15.375 2.18764 15.4321 2.21129C15.4892 2.23494 15.538 2.27499 15.5723 2.32638C15.6067 2.37777 15.625 2.43819 15.625 2.5C15.625 2.58288 15.5921 2.66237 15.5335 2.72097C15.4749 2.77958 15.3954 2.8125 15.3125 2.8125Z" fill="#285C91"/>
<path d="M4.6875 16.5625C4.50208 16.5625 4.32082 16.6175 4.16665 16.7205C4.01248 16.8235 3.89232 16.9699 3.82136 17.1412C3.75041 17.3125 3.73184 17.501 3.76801 17.6829C3.80419 17.8648 3.89348 18.0318 4.02459 18.1629C4.1557 18.294 4.32275 18.3833 4.5046 18.4195C4.68646 18.4557 4.87496 18.4371 5.04626 18.3661C5.21757 18.2952 5.36399 18.175 5.467 18.0208C5.57001 17.8667 5.625 17.6854 5.625 17.5C5.625 17.2514 5.52622 17.0129 5.35041 16.8371C5.17459 16.6613 4.93614 16.5625 4.6875 16.5625ZM4.6875 17.8125C4.62569 17.8125 4.56527 17.7942 4.51388 17.7598C4.46249 17.7255 4.42244 17.6767 4.39879 17.6196C4.37513 17.5625 4.36895 17.4997 4.381 17.439C4.39306 17.3784 4.42282 17.3227 4.46653 17.279C4.51023 17.2353 4.56591 17.2056 4.62653 17.1935C4.68715 17.1814 4.74999 17.1876 4.80709 17.2113C4.86419 17.2349 4.91299 17.275 4.94733 17.3264C4.98167 17.3778 5 17.4382 5 17.5C5 17.5829 4.96707 17.6624 4.90847 17.721C4.84986 17.7796 4.77038 17.8125 4.6875 17.8125Z" fill="#285C91"/>
<path d="M15.3125 16.5625C15.1271 16.5625 14.9458 16.6175 14.7917 16.7205C14.6375 16.8235 14.5173 16.9699 14.4464 17.1412C14.3754 17.3125 14.3568 17.501 14.393 17.6829C14.4292 17.8648 14.5185 18.0318 14.6496 18.1629C14.7807 18.294 14.9477 18.3833 15.1296 18.4195C15.3115 18.4557 15.5 18.4371 15.6713 18.3661C15.8426 18.2952 15.989 18.175 16.092 18.0208C16.195 17.8667 16.25 17.6854 16.25 17.5C16.25 17.2514 16.1512 17.0129 15.9754 16.8371C15.7996 16.6613 15.5611 16.5625 15.3125 16.5625ZM15.3125 17.8125C15.2507 17.8125 15.1903 17.7942 15.1389 17.7598C15.0875 17.7255 15.0474 17.6767 15.0238 17.6196C15.0001 17.5625 14.9939 17.4997 15.006 17.439C15.0181 17.3784 15.0478 17.3227 15.0915 17.279C15.1352 17.2353 15.1909 17.2056 15.2515 17.1935C15.3122 17.1814 15.375 17.1876 15.4321 17.2113C15.4892 17.2349 15.538 17.275 15.5723 17.3264C15.6067 17.3778 15.625 17.4382 15.625 17.5C15.625 17.5829 15.5921 17.6624 15.5335 17.721C15.4749 17.7796 15.3954 17.8125 15.3125 17.8125Z" fill="#285C91"/>
<path d="M10 3.75C9.91712 3.75 9.83763 3.78292 9.77903 3.84153C9.72042 3.90013 9.6875 3.97962 9.6875 4.0625C9.6875 4.14538 9.72042 4.22487 9.77903 4.28347C9.83763 4.34208 9.91712 4.375 10 4.375C10.9114 4.37608 11.7851 4.73858 12.4295 5.38301C13.0739 6.02743 13.4364 6.90115 13.4375 7.8125C13.4375 7.89538 13.4704 7.97487 13.529 8.03347C13.5876 8.09208 13.6671 8.125 13.75 8.125C13.8329 8.125 13.9124 8.09208 13.971 8.03347C14.0296 7.97487 14.0625 7.89538 14.0625 7.8125C14.0613 6.73544 13.6328 5.70285 12.8713 4.94125C12.1097 4.17965 11.0771 3.75124 10 3.75Z" fill="#285C91"/>
<path d="M6.5625 17.5H13.4375V14.375H6.5625V17.5ZM7.1875 15H12.8125V16.875H7.1875V15Z" fill="#285C91"/>
<path d="M10 6.5625C9.75277 6.5625 9.5111 6.63581 9.30554 6.77316C9.09998 6.91051 8.93976 7.10574 8.84515 7.33415C8.75054 7.56255 8.72579 7.81389 8.77402 8.05636C8.82225 8.29884 8.9413 8.52157 9.11612 8.69638C9.29093 8.8712 9.51366 8.99025 9.75614 9.03848C9.99861 9.08671 10.2499 9.06196 10.4784 8.96735C10.7068 8.87274 10.902 8.71252 11.0393 8.50696C11.1767 8.3014 11.25 8.05973 11.25 7.8125C11.25 7.48098 11.1183 7.16304 10.8839 6.92862C10.6495 6.6942 10.3315 6.5625 10 6.5625ZM10 8.4375C9.87639 8.4375 9.75555 8.40084 9.65277 8.33217C9.54999 8.26349 9.46988 8.16588 9.42258 8.05168C9.37527 7.93747 9.36289 7.81181 9.38701 7.69057C9.41113 7.56933 9.47065 7.45797 9.55806 7.37056C9.64547 7.28315 9.75683 7.22362 9.87807 7.19951C9.99931 7.17539 10.125 7.18777 10.2392 7.23508C10.3534 7.28238 10.451 7.36249 10.5197 7.46527C10.5883 7.56805 10.625 7.68889 10.625 7.8125C10.625 7.97826 10.5592 8.13723 10.4419 8.25444C10.3247 8.37165 10.1658 8.4375 10 8.4375Z" fill="#285C91"/>
<path d="M9.99999 2.5C8.94905 2.49904 7.92147 2.81008 7.04748 3.39371C6.17348 3.97734 5.49242 4.8073 5.0906 5.77839C4.68877 6.74949 4.58427 7.81801 4.79034 8.84856C4.99641 9.87911 5.50377 10.8253 6.24812 11.5672L4.86687 12.2172C4.81322 12.2425 4.76787 12.2825 4.7361 12.3325C4.70434 12.3826 4.68748 12.4407 4.6875 12.5V13.4375C4.6875 13.5204 4.72042 13.5999 4.77903 13.6585C4.83763 13.7171 4.91712 13.75 5 13.75H6.875C6.95787 13.75 7.03734 13.7171 7.09593 13.6584L8.02 12.7344C8.64832 12.9921 9.32088 13.1248 9.99999 13.125C11.409 13.125 12.7602 12.5653 13.7565 11.569C14.7528 10.5727 15.3125 9.22147 15.3125 7.8125C15.3125 6.40354 14.7528 5.05229 13.7565 4.056C12.7602 3.05971 11.409 2.5 9.99999 2.5ZM6.74562 13.125H5.3125V12.6984L8.82531 11.0453L6.74562 13.125ZM9.99999 12.5C9.48981 12.501 8.98297 12.4175 8.5 12.2531L10.5312 10.2219C10.582 10.1698 10.613 10.1016 10.6189 10.0291C10.6248 9.95661 10.6052 9.88433 10.5635 9.82473C10.5218 9.76512 10.4606 9.72193 10.3905 9.70258C10.3204 9.68324 10.2457 9.68896 10.1794 9.71875L6.85625 11.2813C6.04804 10.5458 5.52258 9.55087 5.37092 8.46873C5.21927 7.38659 5.45098 6.2855 6.02589 5.35625C6.60081 4.42701 7.4827 3.72818 8.51875 3.38087C9.5548 3.03356 10.6797 3.05965 11.6985 3.45463C12.7174 3.8496 13.5659 4.58856 14.0971 5.54346C14.6283 6.49836 14.8087 7.60902 14.6071 8.68296C14.4054 9.7569 13.8344 10.7265 12.993 11.4236C12.1515 12.1207 11.0927 12.5015 9.99999 12.5Z" fill="#285C91"/>
</svg>
