<svg width="26" height="26" viewBox="0 0 26 26" fill="none" xmlns="http://www.w3.org/2000/svg">
<path opacity="0.9" d="M13.65 0.649994C9.1 0.649994 5.07 3.11999 2.99 6.88999L0 3.89999V12.35H8.45L4.81 8.70999C6.5 5.45999 9.75 3.24999 13.65 3.24999C18.98 3.24999 23.4 7.66999 23.4 13C23.4 18.33 18.98 22.75 13.65 22.75C9.36 22.75 5.85 20.02 4.42 16.25H1.69C3.12 21.45 7.93 25.35 13.65 25.35C20.54 25.35 26 19.76 26 13C26 6.23999 20.41 0.649994 13.65 0.649994ZM11.7 7.14999V13.78L17.81 17.42L18.85 15.73L13.65 12.61V7.14999H11.7Z" fill="#285C91"/>
</svg>
