<svg width="228" height="36" viewBox="0 0 228 36" fill="none" xmlns="http://www.w3.org/2000/svg">
<g clip-path="url(#clip0)">
<path d="M102.162 26.9443C105.085 26.9443 105.888 27.9093 105.888 31.3237C105.888 35.2577 105.085 36.0742 102.162 36.0742C99.0192 36.0742 98.4346 35.2577 98.4346 31.3237C98.4346 27.8351 99.2385 26.9443 102.162 26.9443ZM102.162 34.5155C103.915 34.5155 104.208 34.1443 104.208 31.3979C104.208 28.5031 103.842 28.2804 102.162 28.2804C100.408 28.2804 100.115 28.5031 100.115 31.3979C100.115 34.2186 100.408 34.5155 102.162 34.5155Z" fill="#285C91"/>
<path d="M114 27.0186V28.4289H109.615V30.6557H112.319C113.927 30.6557 114.877 31.4722 114.877 33.1794C114.877 34.8866 114 35.8515 112.392 35.8515H108.008V27.0186H114ZM109.542 34.4412H111.662C112.685 34.4412 113.05 34.2186 113.05 33.1794C113.05 32.2144 112.612 32.066 111.662 32.066H109.542V34.4412Z" fill="#285C91"/>
<path d="M124.231 27.0186V35.8515H122.55V28.4289H119.262V33.4763C119.262 34.7381 118.75 35.9258 117.069 35.9258C116.777 35.9258 116.558 35.9258 116.192 35.8515V34.4412C116.338 34.4412 116.558 34.4412 116.704 34.4412C117.435 34.4412 117.581 34.0701 117.581 33.5505V26.8701H124.231V27.0186Z" fill="#285C91"/>
<path d="M128.104 34.2185L127.592 35.9258H125.838L128.762 27.0928H131.246L134.242 35.9258H132.562L131.977 34.2185H128.104ZM129.931 28.3546L128.469 32.9567H131.465L129.931 28.3546Z" fill="#285C91"/>
<path d="M136.727 27.0186V29.5423C136.727 30.5072 137.019 30.8784 138.335 30.8784C139.285 30.8784 139.869 30.8784 140.381 30.6557V27.0186H142.062V35.8516H140.381V31.9918C139.942 32.2144 139.212 32.2887 138.042 32.2887C135.704 32.2887 135.046 31.3979 135.046 29.468V26.9443H136.727V27.0186Z" fill="#285C91"/>
<path d="M145.788 30.6557H149.881V27.0186H151.562V35.8515H149.881V32.066H145.788V35.8515H144.108V27.0186H145.788V30.6557Z" fill="#285C91"/>
<path d="M155.362 30.6557H158.065C159.673 30.6557 160.623 31.4722 160.623 33.1794C160.623 34.8866 159.746 35.8515 158.138 35.8515H153.754V27.0186H155.435V30.6557H155.362ZM155.362 34.4412H157.481C158.504 34.4412 158.869 34.2186 158.869 33.1794C158.869 32.2144 158.431 32.066 157.481 32.066H155.362V34.4412ZM163.765 35.8515H162.085V27.0186H163.765V35.8515Z" fill="#285C91"/>
<path d="M167.492 30.6557H171.585V32.066H167.492V34.4412H171.804V35.8515H165.885V27.0186H171.804V28.4289H167.492V30.6557Z" fill="#285C91"/>
<path d="M184.738 27.0186L181.742 33.9216C181.012 35.5546 180.281 35.9258 179.331 35.9258C178.892 35.9258 178.673 35.9258 178.235 35.8515V34.4412C178.381 34.4412 178.6 34.5155 178.819 34.5155C179.404 34.5155 179.842 34.367 179.842 33.9216C179.842 33.7732 179.842 33.699 179.769 33.5505L176.773 27.0186H178.819L180.573 31.5464C180.646 31.8433 180.792 32.3629 180.792 32.8082C180.865 32.4371 181.012 31.8433 181.085 31.5464L182.765 27.0928H184.738V27.0186Z" fill="#285C91"/>
<path d="M192.996 32.734V33.2536C192.996 35.2577 192.046 36 189.415 36C186.565 36 185.762 35.0351 185.762 31.3237C185.762 28.2804 186.492 26.9443 189.415 26.9443C192.338 26.9443 192.923 27.9835 193.069 29.9876H191.462C191.388 28.6516 191.023 28.3546 189.488 28.3546C187.954 28.3546 187.588 28.8 187.588 31.4722C187.588 33.9959 187.954 34.5155 189.562 34.5155C191.096 34.5155 191.535 34.2186 191.535 33.2536V32.734H192.996Z" fill="#285C91"/>
<path d="M202.35 27.0186V35.8515H200.669V28.4289H197.308V33.4763C197.308 34.7381 196.796 35.9258 195.115 35.9258C194.823 35.9258 194.604 35.9258 194.238 35.8515V34.4412C194.385 34.4412 194.604 34.4412 194.75 34.4412C195.481 34.4412 195.627 34.0701 195.627 33.5505V26.8701H202.35V27.0186Z" fill="#285C91"/>
<path d="M211.85 27.0186L208.854 33.9216C208.123 35.5546 207.392 35.9258 206.442 35.9258C206.004 35.9258 205.785 35.9258 205.346 35.8515V34.4412C205.492 34.4412 205.712 34.5155 205.931 34.5155C206.515 34.5155 206.954 34.367 206.954 33.9216C206.954 33.7732 206.954 33.699 206.881 33.5505L203.885 27.0186H205.931L207.685 31.5464C207.758 31.8433 207.904 32.3629 207.904 32.8082C207.977 32.4371 208.123 31.8433 208.196 31.5464L209.877 27.0928H211.85V27.0186Z" fill="#285C91"/>
<path d="M218.865 27.0186V28.4289H214.846V35.8515H213.165V27.0186H218.865Z" fill="#285C91"/>
<path d="M228 27.0186V35.8516H226.319V29.9876C226.319 29.6907 226.319 29.0969 226.465 28.4289L222.812 35.8516H220.4V27.0186H222.081V32.8083C222.081 33.1052 222.081 33.7732 221.935 34.367L225.588 26.9443H228V27.0186Z" fill="#285C91"/>
<path fill-rule="evenodd" clip-rule="evenodd" d="M0 22.0454C1.75385 21.5258 2.99615 19.8928 2.99615 17.9629C2.99615 16.033 1.75385 14.4 0 13.8804C1.16923 14.8454 1.97308 16.3299 1.97308 17.9629C1.97308 19.6701 1.16923 21.0804 0 22.0454ZM1.46154 24.1979C1.24231 24.1979 0.95 24.1979 0.730769 24.1237C3.72692 23.7526 6.06538 21.1546 6.06538 17.9629C6.06538 14.8454 3.72692 12.2474 0.730769 11.8763C0.95 11.8763 1.24231 11.8021 1.46154 11.8021C4.82308 11.8021 7.52692 14.5485 7.52692 17.9629C7.6 21.3773 4.82308 24.1979 1.46154 24.1979ZM3.58077 27.7608C3.21538 27.7608 2.77692 27.7608 2.41154 27.6866C7.16154 27.0928 10.8885 22.9361 10.8885 17.9629C10.8885 12.9897 7.23462 8.83299 2.41154 8.23917C2.77692 8.16495 3.21538 8.16495 3.58077 8.16495C8.91538 8.16495 13.2269 12.5443 13.2269 17.9629C13.2269 23.3814 8.91538 27.7608 3.58077 27.7608Z" fill="#285C91"/>
<path fill-rule="evenodd" clip-rule="evenodd" d="M17.3192 36C27.1115 36 35.0039 27.9093 35.0039 18.0371C35.0039 8.09072 27.1115 0 17.3192 0C16.5885 0 15.8577 0.0742268 15.1269 0.148454C23.8962 1.26186 30.6923 8.83299 30.6923 17.9629C30.6923 27.167 23.8962 34.7381 15.1269 35.8515C15.8577 35.9258 16.5885 36 17.3192 36ZM6.72308 31.1753C6.21154 31.1753 5.62693 31.1753 5.11539 31.101C11.5462 30.2845 16.4423 24.7918 16.4423 18.0371C16.4423 11.3567 11.4731 5.78969 5.11539 4.9732C5.62693 4.89897 6.13846 4.89897 6.72308 4.89897C13.8846 4.89897 19.6577 10.7629 19.6577 18.0371C19.6577 25.3113 13.8846 31.1753 6.72308 31.1753ZM11.0346 34.0701C10.3769 34.0701 9.71923 33.9959 9.06154 33.9216C16.8808 32.9567 22.9462 26.2021 22.9462 17.9629C22.9462 9.72371 16.8808 2.96907 9.06154 2.00412C9.71923 1.9299 10.3769 1.85567 11.0346 1.85567C19.8039 1.85567 26.8923 9.05567 26.8923 17.9629C26.8923 26.8701 19.8039 34.0701 11.0346 34.0701Z" fill="#285C91"/>
<path fill-rule="evenodd" clip-rule="evenodd" d="M222.446 0L222.227 0.371134L215.285 11.8021L208.269 0.371134L208.05 0H202.496V17.2948H206.735V5.93814L213.75 16.9237L213.969 17.2948H216.454L216.673 16.9237L223.688 5.86392V17.2948H227.927V0H222.446Z" fill="#285C91"/>
<path fill-rule="evenodd" clip-rule="evenodd" d="M62.3346 0V11.5794C62.3346 12.767 62.1885 13.732 61.9692 14.4C61.8962 14.5485 61.8962 14.6969 61.8231 14.7711C61.5308 15.4392 61.1654 15.8845 60.7269 16.1814C60.1423 16.5526 59.1192 16.8495 57.8039 16.9979C56.5615 17.1464 54.8808 17.2206 52.9077 17.2206C51.8846 17.2206 51.0077 17.2206 50.2038 17.1464C49.4 17.1464 48.6692 17.0722 48.0846 16.9979C47.6462 16.9237 47.2808 16.9237 46.9154 16.8495C46.1846 16.701 45.6 16.5526 45.2346 16.3299C44.5769 15.9588 44.1385 15.3649 43.8462 14.4742C43.5539 13.732 43.4808 12.767 43.4808 11.5794V0H47.7192V11.5794C47.7192 12.0247 47.7923 12.3216 47.8654 12.5443C47.9385 12.6928 48.0115 12.767 48.0846 12.8412C48.3039 12.9155 48.8154 12.9897 49.5462 13.0639C50.35 13.1381 51.4462 13.1381 52.8346 13.1381H52.9077C54.2962 13.1381 55.3923 13.1381 56.1962 13.0639C56.4154 13.0639 56.4885 13.0639 56.5615 13.0639C57.0731 12.9897 57.4385 12.9155 57.6577 12.8412C57.7308 12.767 57.8039 12.6928 57.8769 12.5443C57.95 12.3216 58.0231 11.9505 58.0231 11.5794V0H62.3346Z" fill="#285C91"/>
<path fill-rule="evenodd" clip-rule="evenodd" d="M81.7731 3.78557L70.7385 13.2124H82.0654V17.2948H64.0885V13.732L64.3808 13.5093L75.4885 4.08247H64.6V0H82.0654V3.56289L81.7731 3.78557Z" fill="#285C91"/>
<path fill-rule="evenodd" clip-rule="evenodd" d="M101.723 0V4.08247H95V17.2948H90.7615V4.08247H83.9654V0H101.723Z" fill="#285C91"/>
<path fill-rule="evenodd" clip-rule="evenodd" d="M107.935 4.08247V6.45773H119.627V10.6144H107.935V13.2124H120.065V17.2948H103.696V0H120.065V4.08247H107.935Z" fill="#285C91"/>
<path fill-rule="evenodd" clip-rule="evenodd" d="M138.115 13.2124V17.2948H122.331V0H126.569V13.2124H138.115Z" fill="#285C91"/>
<path fill-rule="evenodd" clip-rule="evenodd" d="M144.254 4.08247V6.45773H155.946V10.6144H144.254V13.2124H156.385V17.2948H140.015V0H156.385V4.08247H144.254Z" fill="#285C91"/>
<path fill-rule="evenodd" clip-rule="evenodd" d="M173.192 7.42268V6.60618C173.192 5.2701 173.046 4.52783 172.754 4.37938C172.535 4.30515 172.096 4.1567 171.365 4.1567C170.562 4.08247 169.465 4.08247 168.077 4.08247C165.3 4.08247 163.765 4.23093 163.4 4.60206C163.254 4.75051 163.181 5.04742 163.035 5.71546C162.888 6.45773 162.815 7.49691 162.815 8.75876C162.815 11.2082 162.962 12.5443 163.327 12.8412L163.4 12.9155C163.473 12.9897 163.619 12.9897 163.692 13.0639C164.496 13.2866 165.885 13.4351 167.931 13.4351C169.319 13.4351 170.342 13.4351 171.146 13.3608C171.877 13.2866 172.242 13.2866 172.462 13.2124L172.535 13.1381C172.608 13.1381 172.608 13.0639 172.681 12.9897C172.973 12.6186 173.119 11.8763 173.119 10.8371V10.0206H177.358V10.8371C177.358 12.1732 177.212 13.3608 176.919 14.2515C176.846 14.4 176.846 14.5485 176.773 14.6969C176.481 15.4392 176.042 16.033 175.458 16.4041C175.238 16.5526 175.019 16.6268 174.8 16.701C174.581 16.7753 174.288 16.8495 174.069 16.9237C172.754 17.2948 170.708 17.4433 168.004 17.4433C166.104 17.4433 164.496 17.2948 163.254 17.0722C161.938 16.8495 160.915 16.4041 160.331 15.8845C159.673 15.2907 159.235 14.4 158.942 13.2124C158.65 12.099 158.504 10.6144 158.504 8.83299C158.504 7.05155 158.65 5.64124 158.942 4.45361C159.235 3.19175 159.673 2.30103 160.331 1.70722C160.915 1.1134 161.938 0.742267 163.254 0.519587C164.496 0.296906 166.104 0.148453 168.004 0.148453C169.904 0.148453 171.438 0.22268 172.608 0.371133C172.827 0.371133 173.046 0.44536 173.192 0.44536C174.215 0.593814 174.946 0.890721 175.458 1.18763C175.823 1.41031 176.115 1.70722 176.335 2.07835C176.554 2.44948 176.773 2.82062 176.919 3.34021C177.212 4.23093 177.358 5.34433 177.358 6.75464V7.42268H173.192Z" fill="#285C91"/>
<path fill-rule="evenodd" clip-rule="evenodd" d="M200.012 5.56702C199.938 4.6763 199.865 4.08248 199.719 3.56289C199.427 2.52372 198.769 1.70722 197.892 1.11341C197.746 1.03918 197.527 0.89073 197.308 0.816503C197.088 0.742276 196.942 0.668049 196.723 0.593822C195.992 0.371142 195.115 0.222688 193.946 0.0742349C192.85 8.05408e-06 191.462 -0.0742188 189.854 -0.0742188C188.319 -0.0742188 186.931 8.05408e-06 185.762 0.0742349C184.592 0.148462 183.642 0.371142 182.912 0.593822C181.815 0.964957 180.938 1.55877 180.427 2.44949C180.354 2.59795 180.208 2.82063 180.135 2.96908C180.062 3.19176 179.988 3.34021 179.915 3.56289C179.769 4.00826 179.696 4.60207 179.623 5.49279C179.55 6.30929 179.55 7.34846 179.55 8.61032C179.55 10.3918 179.623 11.7278 179.769 12.6928C179.769 12.9155 179.842 13.0639 179.842 13.2124C179.842 13.3608 179.915 13.5093 179.988 13.6577C180.281 14.6969 180.938 15.5134 181.815 16.033C181.962 16.1072 182.181 16.2557 182.327 16.3299C182.546 16.4041 182.692 16.4784 182.912 16.5526C183.423 16.701 183.935 16.8495 184.665 16.9237C184.958 16.9979 185.323 16.9979 185.762 17.0722C186.858 17.1464 188.246 17.2206 189.854 17.2206C192.119 17.2206 193.946 17.1464 195.335 16.9237C195.627 16.8495 195.846 16.8495 196.065 16.7753C196.285 16.701 196.504 16.701 196.723 16.6268C197.527 16.4041 198.112 16.033 198.623 15.5134C199.135 14.9938 199.5 14.4 199.719 13.6577C199.865 13.2124 199.938 12.6186 200.012 11.7278C200.085 10.9113 200.085 9.87217 200.085 8.61032C200.085 7.42269 200.085 6.38351 200.012 5.56702ZM195.627 11.7278C195.554 12.3217 195.408 12.6928 195.262 12.767C195.115 12.9155 194.604 12.9897 193.8 13.1382C192.85 13.2866 191.535 13.2866 189.854 13.2866C187.442 13.2866 185.835 13.1382 184.885 12.9155C184.738 12.8412 184.592 12.8412 184.519 12.767C184.446 12.767 184.446 12.6928 184.373 12.6928C184.227 12.5443 184.081 12.2474 184.008 11.6536C183.862 10.9113 183.788 9.9464 183.788 8.61032C183.788 6.75465 183.935 5.49279 184.154 4.82475C184.154 4.75052 184.227 4.60207 184.3 4.60207L184.373 4.52784C184.519 4.37939 185.031 4.30516 185.835 4.15671C186.346 4.08248 186.858 4.08248 187.588 4.00826C188.246 4.00826 188.977 3.93403 189.854 3.93403C191.535 3.93403 192.85 4.00826 193.8 4.08248C194.238 4.15671 194.531 4.15671 194.823 4.23094C195.042 4.30516 195.262 4.37939 195.335 4.45362C195.481 4.52784 195.554 4.89898 195.7 5.49279C195.846 6.23506 195.919 7.27423 195.919 8.53609C195.846 9.9464 195.773 10.9856 195.627 11.7278Z" fill="#285C91"/>
</g>
<defs>
<clipPath id="clip0">
<rect width="228" height="36" fill="white"/>
</clipPath>
</defs>
</svg>
