<svg width="20" height="20" viewBox="0 0 20 20" fill="none" xmlns="http://www.w3.org/2000/svg">
<path d="M19.6667 7.83333C19.8507 7.83333 20 7.68408 20 7.5V6.16667C20 5.98258 19.8507 5.83333 19.6667 5.83333H0.333333C0.14925 5.83333 0 5.98258 0 6.16667V7.5C0 7.68408 0.14925 7.83333 0.333333 7.83333C0.517417 7.83333 0.666667 7.98258 0.666667 8.16667C0.666667 8.35075 0.517417 8.5 0.333333 8.5C0.14925 8.5 0 8.64925 0 8.83333V12.8333C0 13.0174 0.14925 13.1667 0.333333 13.1667H0.666667V13.8333C0.666667 14.0174 0.815917 14.1667 1 14.1667H7C7.18408 14.1667 7.33333 14.0174 7.33333 13.8333V13.1667H8V13.8333C8 14.0174 8.14925 14.1667 8.33333 14.1667H19C19.1841 14.1667 19.3333 14.0174 19.3333 13.8333V13.1667H19.6667C19.8507 13.1667 20 13.0174 20 12.8333V8.83333C20 8.64925 19.8507 8.5 19.6667 8.5C19.4826 8.5 19.3333 8.35075 19.3333 8.16667C19.3333 7.98258 19.4826 7.83333 19.6667 7.83333ZM6.66667 13.5H1.33333V13.1667H6.66667V13.5ZM18.6667 13.5H8.66667V13.1667H18.6667V13.5ZM19.3333 7.22367C18.8125 7.40746 18.5393 7.97867 18.7231 8.49946C18.8238 8.78467 19.0481 9.009 19.3333 9.10967V12.5H0.666667V9.10967C0.678 9.10567 0.688 9.09966 0.7 9.09533C0.718667 9.088 0.736333 9.07966 0.754333 9.071C0.79125 9.05375 0.827083 9.03425 0.861667 9.01267C0.878 9.00267 0.895 8.99267 0.91 8.98167C0.949375 8.95371 0.986667 8.92296 1.02167 8.88967C1.029 8.88267 1.03733 8.87666 1.04433 8.86966C1.08504 8.82846 1.12217 8.78383 1.15533 8.73633C1.16433 8.723 1.172 8.70833 1.18067 8.69467C1.20354 8.65837 1.224 8.62062 1.242 8.58167C1.25033 8.56333 1.25767 8.545 1.265 8.526C1.28013 8.48687 1.29263 8.44679 1.30233 8.406C1.307 8.38767 1.31233 8.37 1.31567 8.35133C1.34046 8.23037 1.34046 8.10562 1.31567 7.98467C1.31233 7.966 1.307 7.94833 1.30233 7.93C1.29263 7.88921 1.28013 7.84912 1.265 7.81C1.25767 7.791 1.25033 7.77233 1.242 7.754C1.22392 7.71521 1.20346 7.67758 1.18067 7.64133C1.172 7.62767 1.16433 7.613 1.15533 7.59967C1.12217 7.55217 1.08504 7.50754 1.04433 7.46633C1.03733 7.45933 1.029 7.45333 1.02167 7.44633C0.986667 7.41304 0.949375 7.38229 0.91 7.35433C0.894333 7.343 0.876667 7.33333 0.861667 7.32333C0.827083 7.30175 0.79125 7.28225 0.754333 7.265C0.736333 7.25667 0.718667 7.248 0.7 7.24067C0.689 7.23633 0.679 7.23033 0.666667 7.22633V6.5H19.3333V7.22367Z" fill="#285C91"/>
<path d="M11 7.16667H9C8.81591 7.16667 8.66666 7.31592 8.66666 7.5V10.8333C8.66666 11.0174 8.81591 11.1667 9 11.1667H11C11.1841 11.1667 11.3333 11.0174 11.3333 10.8333V7.5C11.3333 7.31592 11.1841 7.16667 11 7.16667ZM10.6667 10.5H9.33333V7.83333H10.6667V10.5Z" fill="#285C91"/>
<path d="M14.3333 7.16667H12.3333C12.1493 7.16667 12 7.31592 12 7.5V10.8333C12 11.0174 12.1493 11.1667 12.3333 11.1667H14.3333C14.5174 11.1667 14.6667 11.0174 14.6667 10.8333V7.5C14.6667 7.31592 14.5174 7.16667 14.3333 7.16667ZM14 10.5H12.6667V7.83333H14V10.5Z" fill="#285C91"/>
<path d="M4.33333 7.16667H2.33333C2.14925 7.16667 2 7.31592 2 7.5V10.8333C2 11.0174 2.14925 11.1667 2.33333 11.1667H4.33333C4.51742 11.1667 4.66667 11.0174 4.66667 10.8333V7.5C4.66667 7.31592 4.51742 7.16667 4.33333 7.16667ZM4 10.5H2.66667V7.83333H4V10.5Z" fill="#285C91"/>
<path d="M7.66667 7.16667H5.66667C5.48259 7.16667 5.33334 7.31592 5.33334 7.5V10.8333C5.33334 11.0174 5.48259 11.1667 5.66667 11.1667H7.66667C7.85075 11.1667 8 11.0174 8 10.8333V7.5C8 7.31592 7.85075 7.16667 7.66667 7.16667ZM7.33334 10.5H6V7.83333H7.33334V10.5Z" fill="#285C91"/>
<path d="M17.6667 7.16667H15.6667C15.4826 7.16667 15.3333 7.31592 15.3333 7.5V10.8333C15.3333 11.0174 15.4826 11.1667 15.6667 11.1667H17.6667C17.8508 11.1667 18 11.0174 18 10.8333V7.5C18 7.31592 17.8508 7.16667 17.6667 7.16667ZM17.3333 10.5H16V7.83333H17.3333V10.5Z" fill="#285C91"/>
</svg>
