<svg width="15" height="15" viewBox="0 0 15 15" fill="none" xmlns="http://www.w3.org/2000/svg">
<path d="M7.5 0C3.36433 0 0 3.36433 0 7.5C0 11.6357 3.36433 15 7.5 15C11.6357 15 15 11.6357 15 7.5C15 3.36433 11.6357 0 7.5 0Z" fill="#BD4545"/>
<path d="M10.2619 9.37806C10.5062 9.62251 10.5062 10.0174 10.2619 10.2619C10.14 10.3838 9.98002 10.445 9.81992 10.445C9.65993 10.445 9.49994 10.3838 9.37806 10.2619L7.49997 8.38369L5.62188 10.2619C5.50001 10.3838 5.34002 10.445 5.18003 10.445C5.01993 10.445 4.85994 10.3838 4.73806 10.2619C4.49373 10.0174 4.49373 9.62251 4.73806 9.37806L6.61626 7.49997L4.73806 5.62189C4.49373 5.37744 4.49373 4.9825 4.73806 4.73806C4.9825 4.49373 5.37744 4.49373 5.62188 4.73806L7.49997 6.61626L9.37806 4.73806C9.62251 4.49373 10.0174 4.49373 10.2619 4.73806C10.5062 4.9825 10.5062 5.37744 10.2619 5.62189L8.38369 7.49997L10.2619 9.37806Z" fill="#FAFAFA"/>
</svg>
