<svg width="20" height="20" viewBox="0 0 20 20" fill="none" xmlns="http://www.w3.org/2000/svg">
<g clip-path="url(#clip0)">
<path d="M6 20H8.66667C8.85076 20 9 19.8507 9 19.6666C9 19.1144 9.44772 18.6666 10 18.6666C10.5523 18.6666 11 19.1144 11 19.6666C11 19.8507 11.1492 20 11.3333 20H14C14.3682 20 14.6667 19.7015 14.6667 19.3333V17.3333C14.6667 16.9651 14.3682 16.6666 14 16.6666V16C14.3682 16 14.6667 15.7015 14.6667 15.3333V11.3333C14.6667 10.9651 14.3682 10.6666 14 10.6666V9.99998C14.3682 9.99998 14.6667 9.7015 14.6667 9.33331V5.33331C14.6667 4.96512 14.3682 4.66665 14 4.66665V3.99998C14.3682 3.99998 14.6667 3.7015 14.6667 3.33332V2.66665C14.6667 2.29846 14.3682 1.99998 14 1.99998V0.666651C14 0.298461 13.7015 -1.52588e-05 13.3333 -1.52588e-05H6.66667C6.29848 -1.52588e-05 6 0.298461 6 0.666651V1.99998C5.63181 1.99998 5.33334 2.29846 5.33334 2.66665V3.33332C5.33334 3.7015 5.63181 3.99998 6 3.99998V4.66665C5.63181 4.66665 5.33334 4.96512 5.33334 5.33331V9.33331C5.33334 9.7015 5.63181 9.99998 6 9.99998V10.6666C5.63181 10.6666 5.33334 10.9651 5.33334 11.3333V15.3333C5.33334 15.7015 5.63181 16 6 16V16.6666C5.63181 16.6666 5.33334 16.9651 5.33334 17.3333V19.3333C5.33334 19.7015 5.63181 20 6 20ZM6.66667 0.666651H7.66667V0.999984C7.66667 1.18408 7.81591 1.33332 8 1.33332C8.1841 1.33332 8.33334 1.18408 8.33334 0.999984V0.666651H9V0.999984C9 1.18408 9.14924 1.33332 9.33334 1.33332C9.51743 1.33332 9.66667 1.18408 9.66667 0.999984V0.666651H10.3333V0.999984C10.3333 1.18408 10.4826 1.33332 10.6667 1.33332C10.8508 1.33332 11 1.18408 11 0.999984V0.666651H11.6667V0.999984C11.6667 1.18408 11.8159 1.33332 12 1.33332C12.1841 1.33332 12.3333 1.18408 12.3333 0.999984V0.666651H13.3333V1.99998H6.66667V0.666651ZM6 17.3333C6.36819 17.3333 6.66667 17.0348 6.66667 16.6666V16C6.66667 15.6318 6.36819 15.3333 6 15.3333V11.3333C6.36819 11.3333 6.66667 11.0348 6.66667 10.6666V9.99998C6.66667 9.63179 6.36819 9.33331 6 9.33331V5.33331C6.36819 5.33331 6.66667 5.03484 6.66667 4.66665V3.99998C6.66667 3.63179 6.36819 3.33332 6 3.33332V2.66665H14V3.33332C13.6318 3.33332 13.3333 3.63179 13.3333 3.99998V4.66665C13.3333 5.03484 13.6318 5.33331 14 5.33331V9.33331C13.6318 9.33331 13.3333 9.63179 13.3333 9.99998V10.6666C13.3333 11.0348 13.6318 11.3333 14 11.3333V15.3333C13.6318 15.3333 13.3333 15.6318 13.3333 16V16.6666C13.3333 17.0348 13.6318 17.3333 14 17.3333V19.3333H11.6333C11.4756 18.5565 10.7926 17.9983 10 17.9983C9.20738 17.9983 8.5244 18.5565 8.36667 19.3333H6V17.3333Z" fill="#285C91"/>
<path d="M8 8.33334H12C12.3682 8.33334 12.6667 8.03487 12.6667 7.66668V4C12.6667 3.63181 12.3682 3.33334 12 3.33334H8C7.63181 3.33334 7.33333 3.63181 7.33333 4V7.66668C7.33333 8.03487 7.63181 8.33334 8 8.33334ZM8 4H12V7.66668H8V4Z" fill="#285C91"/>
<path d="M7.99999 13H8.99999C9.36818 13 9.66666 12.7015 9.66666 12.3333V9.66667C9.66666 9.29848 9.36818 9 8.99999 9H7.99999C7.63181 9 7.33333 9.29848 7.33333 9.66667V12.3333C7.33333 12.7015 7.63181 13 7.99999 13ZM7.99999 9.66667H8.99999V12.3333H7.99999V9.66667Z" fill="#285C91"/>
<path d="M12 9H11C10.6318 9 10.3334 9.29848 10.3334 9.66667V12.3333C10.3334 12.7015 10.6318 13 11 13H12C12.3682 13 12.6667 12.7015 12.6667 12.3333V9.66667C12.6667 9.29848 12.3682 9 12 9ZM11 12.3333V9.66667H12V12.3333H11Z" fill="#285C91"/>
<path d="M12.6667 16.6667V14.3333C12.6667 13.9651 12.3682 13.6667 12 13.6667H8C7.63181 13.6667 7.33333 13.9651 7.33333 14.3333V16.6667C7.33333 17.0349 7.63181 17.3334 8 17.3334H12C12.3682 17.3334 12.6667 17.0349 12.6667 16.6667ZM8 14.3333H12V16.6667H8V14.3333Z" fill="#285C91"/>
<path d="M9.00001 5.33333C9.1841 5.33333 9.33334 5.18409 9.33334 5C9.33334 4.8159 9.1841 4.66666 9.00001 4.66666C8.81591 4.66666 8.66667 4.8159 8.66667 5C8.66667 5.18409 8.81591 5.33333 9.00001 5.33333Z" fill="#285C91"/>
<path d="M11 5.33333C11.1841 5.33333 11.3333 5.18409 11.3333 5C11.3333 4.8159 11.1841 4.66666 11 4.66666C10.8159 4.66666 10.6667 4.8159 10.6667 5C10.6667 5.18409 10.8159 5.33333 11 5.33333Z" fill="#285C91"/>
<path d="M9.00001 7C9.1841 7 9.33334 6.85076 9.33334 6.66667C9.33334 6.48257 9.1841 6.33334 9.00001 6.33334C8.81591 6.33334 8.66667 6.48257 8.66667 6.66667C8.66667 6.85076 8.81591 7 9.00001 7Z" fill="#285C91"/>
<path d="M11 7C11.1841 7 11.3333 6.85076 11.3333 6.66667C11.3333 6.48257 11.1841 6.33334 11 6.33334C10.8159 6.33334 10.6667 6.48257 10.6667 6.66667C10.6667 6.85076 10.8159 7 11 7Z" fill="#285C91"/>
</g>
<defs>
<clipPath id="clip0">
<rect width="20" height="20" fill="white"/>
</clipPath>
</defs>
</svg>
