<svg width="20" height="20" viewBox="0 0 20 20" fill="none" xmlns="http://www.w3.org/2000/svg">
<g clip-path="url(#clip0)">
<path d="M0.00946454 9.79118L0.509463 9.79223C0.509444 9.80165 0.509618 9.81028 0.509936 9.81818C0.522393 9.81705 0.536369 9.81534 0.551929 9.8129C0.708575 9.78676 0.855556 9.80868 0.929358 9.81969L0.93477 9.82049C0.945465 9.82208 0.954989 9.82352 0.963628 9.82482C0.964046 9.82488 0.964462 9.82494 0.964875 9.82501C0.967002 9.81762 0.969187 9.80962 0.971413 9.801L0.00946454 9.79118ZM0.00946454 9.79118C0.00851748 10.242 0.264224 10.3651 0.63263 10.3064L13.0435 15.4498L13.0429 15.4476M0.00946454 9.79118L0.509458 9.79372C0.517982 8.11559 0.523695 6.43603 0.499944 4.75358L0.499943 4.75351C0.499625 4.7312 0.500132 4.71286 0.501027 4.698C0.503973 4.69735 0.507059 4.69669 0.51029 4.69602C0.557668 4.68617 0.605741 4.67915 0.672662 4.66939C0.700261 4.66537 0.731065 4.66087 0.766348 4.65552L0.766348 4.65553L0.768633 4.65517C2.61668 4.36604 4.33958 4.88471 5.41009 6.10221L5.41016 6.1023C6.76493 7.64235 8.29996 7.52544 9.62346 7.42465C9.77916 7.41279 9.93194 7.40116 10.0811 7.39247L10.082 7.39242C10.4713 7.36909 10.7918 7.51385 11.016 7.71009C11.129 7.80895 11.2113 7.91572 11.2623 8.00983C11.2876 8.05652 11.3032 8.09632 11.3118 8.12693C11.3207 8.15831 11.3205 8.17342 11.3205 8.17334L11.3205 8.17385C11.3027 8.73298 11.4124 9.19095 11.6358 9.56797C11.8572 9.94193 12.1664 10.1955 12.4785 10.386C12.7336 10.5418 13.0157 10.6691 13.2632 10.7808C13.309 10.8015 13.3537 10.8216 13.3968 10.8413C13.6902 10.9755 13.9285 11.0957 14.1182 11.2459L14.1182 11.2459L14.1257 11.2517C14.2822 11.3707 14.4469 11.36 14.5123 11.3504C14.5847 11.3399 14.6402 11.3163 14.6674 11.3038C14.725 11.2773 14.7736 11.2441 14.8025 11.2235C14.8662 11.178 14.9363 11.119 14.9979 11.065C15.0778 10.995 15.1738 10.9066 15.2541 10.8326C15.2947 10.7951 15.3313 10.7614 15.3598 10.7356C15.757 10.3791 16.1661 10.0668 16.613 9.81289C16.6299 9.98167 16.7008 10.1392 16.7944 10.276L16.7946 10.2764C16.9236 10.4646 17.0968 10.5972 17.3073 10.6562C17.5026 10.7111 17.6831 10.689 17.8084 10.6631C17.8949 10.6452 17.9969 10.6147 18.0625 10.5951C18.082 10.5892 18.0983 10.5844 18.11 10.5811C18.1568 10.5679 18.179 10.5642 18.1852 10.5631C18.3716 10.5834 18.5827 10.6723 18.8549 10.8302C18.9397 10.8793 19.0244 10.9315 19.113 10.9868C19.0102 11.0361 18.8993 11.0797 18.7792 11.122C18.7089 11.1468 18.6304 11.1722 18.5465 11.1995C18.2526 11.2949 17.8931 11.4116 17.5878 11.5942L17.586 11.5953C17.5839 11.5966 17.5819 11.5978 17.58 11.5988C17.5782 11.5974 17.5764 11.5959 17.5744 11.5943C17.5406 11.5658 17.5005 11.5207 17.4488 11.4525C17.4299 11.4276 17.4129 11.4043 17.394 11.3784C17.387 11.3688 17.3798 11.3589 17.3721 11.3484C17.3468 11.314 17.3141 11.2698 17.2797 11.2293L17.2791 11.2285C17.1555 11.0833 17.0254 10.9443 16.8873 10.8365C16.7486 10.7282 16.5683 10.6247 16.3466 10.603C15.8796 10.5574 15.5421 10.89 15.3034 11.1847C15.3033 11.1848 15.3033 11.1849 15.3032 11.185L15.6918 11.4996M15.6918 11.4996C15.646 11.556 15.6007 11.6132 15.5554 11.6704C15.1713 12.1555 14.7834 12.6455 14.0068 12.7187C13.8198 12.5539 13.6113 12.3934 13.3882 12.2334L13.0969 12.6398L12.9846 13.127C13.2898 13.1974 13.5675 13.2296 13.8216 13.2279C14.5061 13.8888 14.6217 14.4935 14.1083 15.3767M15.6918 11.4996C16.1663 10.9134 16.4315 11.0043 16.8984 11.5526L15.6918 11.4996ZM14.1083 15.3767L13.6763 15.125C13.6762 15.1252 13.6761 15.1253 13.6761 15.1254L14.1083 15.3767ZM14.1083 15.3767C13.5392 16.354 12.6082 15.7555 12.5608 15.5803C12.3105 14.6704 11.6172 14.4295 10.9301 14.1907C10.5645 14.0636 10.2006 13.9372 9.90623 13.7109M9.90623 13.7109L10.2116 13.315C10.2114 13.3148 10.2112 13.3147 10.211 13.3145M9.90623 13.7109C9.64157 13.5067 9.36007 13.3235 9.07989 13.1411C8.21109 12.5755 7.35495 12.0182 7.05274 10.8717L10.211 13.3145M9.90623 13.7109L10.211 13.3145C10.211 13.3145 10.211 13.3145 10.211 13.3145M10.211 13.3145C10.3635 13.4317 10.556 13.5221 10.8001 13.6136C10.8763 13.6422 10.9681 13.6742 11.0663 13.7085C11.2404 13.7692 11.4349 13.8371 11.5993 13.9054C12.1594 14.1379 12.7433 14.5107 13.01 15.3373M13.01 15.3373C12.9981 15.3297 12.9886 15.3229 12.9817 15.3174C12.9749 15.312 12.9718 15.309 12.9718 15.309L12.9718 15.3091C12.9722 15.3094 12.974 15.3112 12.9769 15.3147C12.9797 15.318 12.9846 15.3239 12.9905 15.3325C12.999 15.3447 13.0255 15.3844 13.0429 15.4476M13.01 15.3373C13.0216 15.3732 13.0326 15.41 13.0429 15.4476M13.01 15.3373C13.0104 15.3376 13.0108 15.3378 13.0111 15.3381C13.0646 15.3721 13.1394 15.4044 13.2176 15.4169C13.2918 15.4287 13.359 15.4216 13.4213 15.3925L13.0429 15.4476M17.2071 9.99384C17.0582 9.77602 17.0976 9.63811 17.2061 9.52166L17.2071 9.99384ZM17.2071 9.99384C17.3975 10.2718 17.656 10.1945 17.8954 10.123C18.0109 10.0885 18.1218 10.0553 18.2186 10.0639L17.2071 9.99384ZM4.49106 8.59301C3.89489 8.03083 3.07368 8.01425 2.42045 8.2607C1.76826 8.50676 1.16368 9.05448 0.971459 9.80082L4.49106 8.59301ZM16.9254 9.0978C16.2083 9.41053 15.5973 9.8506 15.0251 10.3641C14.9893 10.3965 14.9485 10.4341 14.9054 10.4739C14.7088 10.6552 14.4642 10.8809 14.4284 10.8537C14.148 10.6319 13.8054 10.4771 13.4619 10.3218L16.9254 9.0978Z" stroke="#43709E"/>
</g>
<defs>
<clipPath id="clip0">
<rect width="20" height="20" fill="white"/>
</clipPath>
</defs>
</svg>
